<mxfile host="app.diagrams.net" agent="Mozilla/5.0 (Windows NT 10.0; Win64; x64) AppleWebKit/537.36 (KHTML, like Gecko) Chrome/131.0.0.0 Safari/537.36" version="25.0.3">
  <diagram id="C5RBs43oDa-KdzZeNtuy" name="Page-1">
    <mxGraphModel dx="1290" dy="530" grid="1" gridSize="10" guides="1" tooltips="1" connect="1" arrows="1" fold="1" page="1" pageScale="1" pageWidth="827" pageHeight="1169" math="0" shadow="0">
      <root>
        <mxCell id="WIyWlLk6GJQsqaUBKTNV-0" />
        <mxCell id="WIyWlLk6GJQsqaUBKTNV-1" parent="WIyWlLk6GJQsqaUBKTNV-0" />
        <mxCell id="tmIG3iBI0EEBTWDiCDlK-2" style="edgeStyle=orthogonalEdgeStyle;rounded=0;orthogonalLoop=1;jettySize=auto;html=1;exitX=0.5;exitY=1;exitDx=0;exitDy=0;exitPerimeter=0;" edge="1" parent="WIyWlLk6GJQsqaUBKTNV-1" source="tmIG3iBI0EEBTWDiCDlK-0" target="tmIG3iBI0EEBTWDiCDlK-1">
          <mxGeometry relative="1" as="geometry" />
        </mxCell>
        <mxCell id="tmIG3iBI0EEBTWDiCDlK-0" value="START" style="strokeWidth=2;html=1;shape=mxgraph.flowchart.start_1;whiteSpace=wrap;" vertex="1" parent="WIyWlLk6GJQsqaUBKTNV-1">
          <mxGeometry x="140" y="70" width="100" height="60" as="geometry" />
        </mxCell>
        <mxCell id="tmIG3iBI0EEBTWDiCDlK-1" value="READ NUMBER1,NUMBER2&lt;div&gt;,OPERATION TYPE&lt;/div&gt;" style="shape=parallelogram;html=1;strokeWidth=2;perimeter=parallelogramPerimeter;whiteSpace=wrap;rounded=1;arcSize=12;size=0.23;" vertex="1" parent="WIyWlLk6GJQsqaUBKTNV-1">
          <mxGeometry x="50" y="180" width="280" height="120" as="geometry" />
        </mxCell>
        <mxCell id="tmIG3iBI0EEBTWDiCDlK-6" style="edgeStyle=orthogonalEdgeStyle;rounded=0;orthogonalLoop=1;jettySize=auto;html=1;exitX=0.5;exitY=1;exitDx=0;exitDy=0;exitPerimeter=0;" edge="1" parent="WIyWlLk6GJQsqaUBKTNV-1" source="tmIG3iBI0EEBTWDiCDlK-3" target="tmIG3iBI0EEBTWDiCDlK-5">
          <mxGeometry relative="1" as="geometry" />
        </mxCell>
        <mxCell id="tmIG3iBI0EEBTWDiCDlK-30" value="YES" style="edgeLabel;html=1;align=center;verticalAlign=middle;resizable=0;points=[];" vertex="1" connectable="0" parent="tmIG3iBI0EEBTWDiCDlK-6">
          <mxGeometry x="-0.06" relative="1" as="geometry">
            <mxPoint as="offset" />
          </mxGeometry>
        </mxCell>
        <mxCell id="tmIG3iBI0EEBTWDiCDlK-3" value="OP = +" style="strokeWidth=2;html=1;shape=mxgraph.flowchart.decision;whiteSpace=wrap;" vertex="1" parent="WIyWlLk6GJQsqaUBKTNV-1">
          <mxGeometry x="127.5" y="360" width="125" height="120" as="geometry" />
        </mxCell>
        <mxCell id="tmIG3iBI0EEBTWDiCDlK-4" style="edgeStyle=orthogonalEdgeStyle;rounded=0;orthogonalLoop=1;jettySize=auto;html=1;exitX=0.5;exitY=1;exitDx=0;exitDy=0;entryX=0.5;entryY=0;entryDx=0;entryDy=0;entryPerimeter=0;" edge="1" parent="WIyWlLk6GJQsqaUBKTNV-1" source="tmIG3iBI0EEBTWDiCDlK-1" target="tmIG3iBI0EEBTWDiCDlK-3">
          <mxGeometry relative="1" as="geometry" />
        </mxCell>
        <mxCell id="tmIG3iBI0EEBTWDiCDlK-21" style="edgeStyle=orthogonalEdgeStyle;rounded=0;orthogonalLoop=1;jettySize=auto;html=1;exitX=0.5;exitY=1;exitDx=0;exitDy=0;entryX=0;entryY=0.5;entryDx=0;entryDy=0;" edge="1" parent="WIyWlLk6GJQsqaUBKTNV-1" source="tmIG3iBI0EEBTWDiCDlK-5" target="tmIG3iBI0EEBTWDiCDlK-20">
          <mxGeometry relative="1" as="geometry">
            <Array as="points">
              <mxPoint x="190" y="660" />
            </Array>
          </mxGeometry>
        </mxCell>
        <mxCell id="tmIG3iBI0EEBTWDiCDlK-5" value="RESULT = NUMBER1 + NUMBER2" style="rounded=1;whiteSpace=wrap;html=1;absoluteArcSize=1;arcSize=14;strokeWidth=2;" vertex="1" parent="WIyWlLk6GJQsqaUBKTNV-1">
          <mxGeometry x="70" y="520" width="240" height="50" as="geometry" />
        </mxCell>
        <mxCell id="tmIG3iBI0EEBTWDiCDlK-12" style="edgeStyle=orthogonalEdgeStyle;rounded=0;orthogonalLoop=1;jettySize=auto;html=1;exitX=0.5;exitY=1;exitDx=0;exitDy=0;exitPerimeter=0;entryX=0.5;entryY=0;entryDx=0;entryDy=0;" edge="1" parent="WIyWlLk6GJQsqaUBKTNV-1" source="tmIG3iBI0EEBTWDiCDlK-7" target="tmIG3iBI0EEBTWDiCDlK-8">
          <mxGeometry relative="1" as="geometry" />
        </mxCell>
        <mxCell id="tmIG3iBI0EEBTWDiCDlK-31" value="YES" style="edgeLabel;html=1;align=center;verticalAlign=middle;resizable=0;points=[];" vertex="1" connectable="0" parent="tmIG3iBI0EEBTWDiCDlK-12">
          <mxGeometry x="-0.06" y="1" relative="1" as="geometry">
            <mxPoint as="offset" />
          </mxGeometry>
        </mxCell>
        <mxCell id="tmIG3iBI0EEBTWDiCDlK-7" value="OP = -" style="strokeWidth=2;html=1;shape=mxgraph.flowchart.decision;whiteSpace=wrap;" vertex="1" parent="WIyWlLk6GJQsqaUBKTNV-1">
          <mxGeometry x="387.5" y="360" width="125" height="120" as="geometry" />
        </mxCell>
        <mxCell id="tmIG3iBI0EEBTWDiCDlK-22" style="edgeStyle=orthogonalEdgeStyle;rounded=0;orthogonalLoop=1;jettySize=auto;html=1;exitX=0.5;exitY=1;exitDx=0;exitDy=0;entryX=0;entryY=0.5;entryDx=0;entryDy=0;" edge="1" parent="WIyWlLk6GJQsqaUBKTNV-1" source="tmIG3iBI0EEBTWDiCDlK-8" target="tmIG3iBI0EEBTWDiCDlK-20">
          <mxGeometry relative="1" as="geometry" />
        </mxCell>
        <mxCell id="tmIG3iBI0EEBTWDiCDlK-8" value="RESULT = NUMBER1 - NUMBER2" style="rounded=1;whiteSpace=wrap;html=1;absoluteArcSize=1;arcSize=14;strokeWidth=2;" vertex="1" parent="WIyWlLk6GJQsqaUBKTNV-1">
          <mxGeometry x="330" y="520" width="240" height="50" as="geometry" />
        </mxCell>
        <mxCell id="tmIG3iBI0EEBTWDiCDlK-23" style="edgeStyle=orthogonalEdgeStyle;rounded=0;orthogonalLoop=1;jettySize=auto;html=1;exitX=0.5;exitY=1;exitDx=0;exitDy=0;entryX=1;entryY=0.5;entryDx=0;entryDy=0;" edge="1" parent="WIyWlLk6GJQsqaUBKTNV-1" source="tmIG3iBI0EEBTWDiCDlK-9" target="tmIG3iBI0EEBTWDiCDlK-20">
          <mxGeometry relative="1" as="geometry">
            <Array as="points">
              <mxPoint x="707" y="660" />
            </Array>
          </mxGeometry>
        </mxCell>
        <mxCell id="tmIG3iBI0EEBTWDiCDlK-9" value="RESULT = NUMBER1 * NUMBER2" style="rounded=1;whiteSpace=wrap;html=1;absoluteArcSize=1;arcSize=14;strokeWidth=2;" vertex="1" parent="WIyWlLk6GJQsqaUBKTNV-1">
          <mxGeometry x="587" y="520" width="240" height="50" as="geometry" />
        </mxCell>
        <mxCell id="tmIG3iBI0EEBTWDiCDlK-24" style="edgeStyle=orthogonalEdgeStyle;rounded=0;orthogonalLoop=1;jettySize=auto;html=1;exitX=0.5;exitY=1;exitDx=0;exitDy=0;entryX=1;entryY=0.5;entryDx=0;entryDy=0;" edge="1" parent="WIyWlLk6GJQsqaUBKTNV-1" source="tmIG3iBI0EEBTWDiCDlK-10" target="tmIG3iBI0EEBTWDiCDlK-20">
          <mxGeometry relative="1" as="geometry">
            <Array as="points">
              <mxPoint x="960" y="660" />
            </Array>
          </mxGeometry>
        </mxCell>
        <mxCell id="tmIG3iBI0EEBTWDiCDlK-10" value="RESULT = NUMBER1 / NUMBER2" style="rounded=1;whiteSpace=wrap;html=1;absoluteArcSize=1;arcSize=14;strokeWidth=2;" vertex="1" parent="WIyWlLk6GJQsqaUBKTNV-1">
          <mxGeometry x="840" y="520" width="240" height="50" as="geometry" />
        </mxCell>
        <mxCell id="tmIG3iBI0EEBTWDiCDlK-11" style="edgeStyle=orthogonalEdgeStyle;rounded=0;orthogonalLoop=1;jettySize=auto;html=1;exitX=1;exitY=0.5;exitDx=0;exitDy=0;exitPerimeter=0;entryX=0;entryY=0.5;entryDx=0;entryDy=0;entryPerimeter=0;" edge="1" parent="WIyWlLk6GJQsqaUBKTNV-1" source="tmIG3iBI0EEBTWDiCDlK-3" target="tmIG3iBI0EEBTWDiCDlK-7">
          <mxGeometry relative="1" as="geometry" />
        </mxCell>
        <mxCell id="tmIG3iBI0EEBTWDiCDlK-27" value="NO" style="edgeLabel;html=1;align=center;verticalAlign=middle;resizable=0;points=[];" vertex="1" connectable="0" parent="tmIG3iBI0EEBTWDiCDlK-11">
          <mxGeometry x="-0.2193" y="-1" relative="1" as="geometry">
            <mxPoint as="offset" />
          </mxGeometry>
        </mxCell>
        <mxCell id="tmIG3iBI0EEBTWDiCDlK-17" style="edgeStyle=orthogonalEdgeStyle;rounded=0;orthogonalLoop=1;jettySize=auto;html=1;exitX=0.5;exitY=1;exitDx=0;exitDy=0;exitPerimeter=0;entryX=0.5;entryY=0;entryDx=0;entryDy=0;" edge="1" parent="WIyWlLk6GJQsqaUBKTNV-1" source="tmIG3iBI0EEBTWDiCDlK-14" target="tmIG3iBI0EEBTWDiCDlK-9">
          <mxGeometry relative="1" as="geometry" />
        </mxCell>
        <mxCell id="tmIG3iBI0EEBTWDiCDlK-32" value="YES" style="edgeLabel;html=1;align=center;verticalAlign=middle;resizable=0;points=[];" vertex="1" connectable="0" parent="tmIG3iBI0EEBTWDiCDlK-17">
          <mxGeometry x="-0.31" y="1" relative="1" as="geometry">
            <mxPoint as="offset" />
          </mxGeometry>
        </mxCell>
        <mxCell id="tmIG3iBI0EEBTWDiCDlK-14" value="OP = *" style="strokeWidth=2;html=1;shape=mxgraph.flowchart.decision;whiteSpace=wrap;" vertex="1" parent="WIyWlLk6GJQsqaUBKTNV-1">
          <mxGeometry x="644.5" y="360" width="125" height="120" as="geometry" />
        </mxCell>
        <mxCell id="tmIG3iBI0EEBTWDiCDlK-19" style="edgeStyle=orthogonalEdgeStyle;rounded=0;orthogonalLoop=1;jettySize=auto;html=1;exitX=0.5;exitY=1;exitDx=0;exitDy=0;exitPerimeter=0;entryX=0.5;entryY=0;entryDx=0;entryDy=0;" edge="1" parent="WIyWlLk6GJQsqaUBKTNV-1" source="tmIG3iBI0EEBTWDiCDlK-15" target="tmIG3iBI0EEBTWDiCDlK-10">
          <mxGeometry relative="1" as="geometry" />
        </mxCell>
        <mxCell id="tmIG3iBI0EEBTWDiCDlK-33" value="YES" style="edgeLabel;html=1;align=center;verticalAlign=middle;resizable=0;points=[];" vertex="1" connectable="0" parent="tmIG3iBI0EEBTWDiCDlK-19">
          <mxGeometry x="-0.16" y="3" relative="1" as="geometry">
            <mxPoint as="offset" />
          </mxGeometry>
        </mxCell>
        <mxCell id="tmIG3iBI0EEBTWDiCDlK-34" style="edgeStyle=orthogonalEdgeStyle;rounded=0;orthogonalLoop=1;jettySize=auto;html=1;exitX=1;exitY=0.5;exitDx=0;exitDy=0;exitPerimeter=0;" edge="1" parent="WIyWlLk6GJQsqaUBKTNV-1" source="tmIG3iBI0EEBTWDiCDlK-15" target="tmIG3iBI0EEBTWDiCDlK-35">
          <mxGeometry relative="1" as="geometry">
            <mxPoint x="1190" y="800" as="targetPoint" />
          </mxGeometry>
        </mxCell>
        <mxCell id="tmIG3iBI0EEBTWDiCDlK-37" value="NO" style="edgeLabel;html=1;align=center;verticalAlign=middle;resizable=0;points=[];" vertex="1" connectable="0" parent="tmIG3iBI0EEBTWDiCDlK-34">
          <mxGeometry x="-0.8096" y="-2" relative="1" as="geometry">
            <mxPoint as="offset" />
          </mxGeometry>
        </mxCell>
        <mxCell id="tmIG3iBI0EEBTWDiCDlK-15" value="OP = /" style="strokeWidth=2;html=1;shape=mxgraph.flowchart.decision;whiteSpace=wrap;" vertex="1" parent="WIyWlLk6GJQsqaUBKTNV-1">
          <mxGeometry x="897.5" y="360" width="125" height="120" as="geometry" />
        </mxCell>
        <mxCell id="tmIG3iBI0EEBTWDiCDlK-16" style="edgeStyle=orthogonalEdgeStyle;rounded=0;orthogonalLoop=1;jettySize=auto;html=1;exitX=1;exitY=0.5;exitDx=0;exitDy=0;exitPerimeter=0;entryX=0;entryY=0.5;entryDx=0;entryDy=0;entryPerimeter=0;" edge="1" parent="WIyWlLk6GJQsqaUBKTNV-1" source="tmIG3iBI0EEBTWDiCDlK-7" target="tmIG3iBI0EEBTWDiCDlK-14">
          <mxGeometry relative="1" as="geometry" />
        </mxCell>
        <mxCell id="tmIG3iBI0EEBTWDiCDlK-28" value="NO" style="edgeLabel;html=1;align=center;verticalAlign=middle;resizable=0;points=[];" vertex="1" connectable="0" parent="tmIG3iBI0EEBTWDiCDlK-16">
          <mxGeometry x="-0.1106" y="-3" relative="1" as="geometry">
            <mxPoint as="offset" />
          </mxGeometry>
        </mxCell>
        <mxCell id="tmIG3iBI0EEBTWDiCDlK-18" style="edgeStyle=orthogonalEdgeStyle;rounded=0;orthogonalLoop=1;jettySize=auto;html=1;exitX=1;exitY=0.5;exitDx=0;exitDy=0;exitPerimeter=0;entryX=0;entryY=0.5;entryDx=0;entryDy=0;entryPerimeter=0;" edge="1" parent="WIyWlLk6GJQsqaUBKTNV-1" source="tmIG3iBI0EEBTWDiCDlK-14" target="tmIG3iBI0EEBTWDiCDlK-15">
          <mxGeometry relative="1" as="geometry" />
        </mxCell>
        <mxCell id="tmIG3iBI0EEBTWDiCDlK-29" value="NO" style="edgeLabel;html=1;align=center;verticalAlign=middle;resizable=0;points=[];" vertex="1" connectable="0" parent="tmIG3iBI0EEBTWDiCDlK-18">
          <mxGeometry x="-0.2078" y="-3" relative="1" as="geometry">
            <mxPoint as="offset" />
          </mxGeometry>
        </mxCell>
        <mxCell id="tmIG3iBI0EEBTWDiCDlK-20" value="PRINT RESULT" style="shape=parallelogram;html=1;strokeWidth=2;perimeter=parallelogramPerimeter;whiteSpace=wrap;rounded=1;arcSize=12;size=0.23;" vertex="1" parent="WIyWlLk6GJQsqaUBKTNV-1">
          <mxGeometry x="387.5" y="630" width="310" height="60" as="geometry" />
        </mxCell>
        <mxCell id="tmIG3iBI0EEBTWDiCDlK-25" value="END" style="strokeWidth=2;html=1;shape=mxgraph.flowchart.terminator;whiteSpace=wrap;" vertex="1" parent="WIyWlLk6GJQsqaUBKTNV-1">
          <mxGeometry x="492.5" y="750" width="100" height="60" as="geometry" />
        </mxCell>
        <mxCell id="tmIG3iBI0EEBTWDiCDlK-26" style="edgeStyle=orthogonalEdgeStyle;rounded=0;orthogonalLoop=1;jettySize=auto;html=1;exitX=0.5;exitY=1;exitDx=0;exitDy=0;entryX=0.5;entryY=0;entryDx=0;entryDy=0;entryPerimeter=0;" edge="1" parent="WIyWlLk6GJQsqaUBKTNV-1" source="tmIG3iBI0EEBTWDiCDlK-20" target="tmIG3iBI0EEBTWDiCDlK-25">
          <mxGeometry relative="1" as="geometry" />
        </mxCell>
        <mxCell id="tmIG3iBI0EEBTWDiCDlK-35" value="PRINT &quot;WRONG OPERATION&quot;" style="shape=parallelogram;html=1;strokeWidth=2;perimeter=parallelogramPerimeter;whiteSpace=wrap;rounded=1;arcSize=12;size=0.23;" vertex="1" parent="WIyWlLk6GJQsqaUBKTNV-1">
          <mxGeometry x="980" y="750" width="280" height="60" as="geometry" />
        </mxCell>
        <mxCell id="tmIG3iBI0EEBTWDiCDlK-36" style="edgeStyle=orthogonalEdgeStyle;rounded=0;orthogonalLoop=1;jettySize=auto;html=1;exitX=0;exitY=0.5;exitDx=0;exitDy=0;entryX=1;entryY=0.5;entryDx=0;entryDy=0;entryPerimeter=0;" edge="1" parent="WIyWlLk6GJQsqaUBKTNV-1" source="tmIG3iBI0EEBTWDiCDlK-35" target="tmIG3iBI0EEBTWDiCDlK-25">
          <mxGeometry relative="1" as="geometry" />
        </mxCell>
      </root>
    </mxGraphModel>
  </diagram>
</mxfile>
